<svg xmlns="http://www.w3.org/2000/svg" viewBox="0 0 304.42 94.05"><title>アセット 2</title><g id="レイヤー_2" data-name="レイヤー 2"><g id="レイヤー_1-2" data-name="レイヤー 1"><path d="M21.69,23.86c4.38,0,7.14-.05,15-.39.38,0,.47.13.47,1.92A14.16,14.16,0,0,1,37,27c0,.17-.13.26-.38.26-6.55-.3-9.87-.39-13.36-.39,2.13,2.73,7.11,6.85,16.46,6.85.85,0,.85.13.85.17s-.17.3-.51.51a13.82,13.82,0,0,0-3.19,2.89.85.85,0,0,1-.76.43,20.66,20.66,0,0,1-15.86-9.44c-4.34,8.93-16,10-16.25,10a.4.4,0,0,1-.38-.17A17,17,0,0,0,.34,35.21C.08,35,0,34.87,0,34.74s.21-.21.47-.21c10.08-.38,14.63-4.12,16.41-7.7-3.31,0-5.91.09-12.58.39-.56,0-.6,0-.6-1.87s0-1.88.6-1.88c7.1.34,10.24.39,13.56.39A7.17,7.17,0,0,0,18,22.5a8,8,0,0,0-.09-1.32c0-.13,0-.22,0-.3s0-.17.3-.17c4.16.34,4.76.6,4.76.94s-.21.42-.51.72a1.51,1.51,0,0,0-.6.89Zm4-17.35c2.29,0,4.68-.13,8.5-.34.43,0,.47.17.47,1.82a13.34,13.34,0,0,1-.08,1.45c0,.17-.09.26-.34.26-5.28-.17-8.17-.26-11.74-.3,0,0,0,0,0,.08s-.17.3-.38.43-.47.34-.47,2.25c3.23,0,4.38,0,9.7-.34.25,0,.42.09.42,1.75a11.69,11.69,0,0,1-.08,1.36c0,.17-.13.25-.34.25-5.45-.25-6.72-.34-9.7-.34,0,.89.09,1.79.13,2.6,4.29,0,7.06-.05,14.8-.39.47,0,.47.22.47,1.92A14.14,14.14,0,0,1,37,20.5c0,.17-.13.25-.38.25-8.38-.38-11.44-.38-16.33-.38-5.53,0-7.32,0-16,.38-.34,0-.51-.08-.56-.34s0-.89,0-1.49c0-1.87,0-1.87.6-1.87,7.27.34,10.37.39,13.77.39.05-.81.09-1.71.09-2.6-3,0-4.72.09-9.87.34-.25,0-.38-.08-.42-.34s0-.85,0-1.36c0-1.62.09-1.66.3-1.66h.17c4.77.26,7.15.34,9.87.34,0-1-.09-1.95-.13-2.8-3.78,0-6,0-11.86.34-.3,0-.47,0-.51-.3s0-.9,0-1.45c0-1.78,0-1.78.56-1.78,3.91.17,6.5.25,8.71.29a32.92,32.92,0,0,0-4-3.87c-.13-.12-.22-.21-.22-.29A10.41,10.41,0,0,1,13.44.38c.64,0,5.31,4.08,5.31,4.51s-1.53,1.57-1.61,1.66h4.38A27.85,27.85,0,0,0,25,.42c.12-.29.12-.42.25-.42.6,0,4.34,2,4.34,2.42,0,.26-.38.43-.85.73a3.34,3.34,0,0,0-1,1.06Z" style="fill:#231815"/><path d="M44.09,29.3c.3-3.74.39-11.69.39-14.37,0-3.36,0-5.91-.22-9.15,0-.12,0-.25,0-.34s.09-.21.34-.21h.26c1.53.13,3.44.21,4.89.21s2.17,0,4.67-.21h.13c.26,0,.34.09.34.34v.17c-.17,1.83-.17,3.1-.17,8.85,0,2.46.22,8.25.22,12.2,0,.81-.13.89-1.75.89s-2-.08-2-.63,0-1.07,0-1.7a14.74,14.74,0,0,0-1.49-.05c-.46,0-1.06,0-1.53.05,0,1.65,0,3.06.09,4,0,.6-.13.68-2.09.68s-2-.21-2-.55Zm20.12,7.57c.25-2.76.42-8.8.51-13.52-4.89,8.54-11.87,11.82-12.25,11.82a1,1,0,0,1-.55-.21,13.78,13.78,0,0,0-3.66-1.71c-.21-.08-.38-.21-.38-.29s.08-.17.25-.26c7.79-2.63,13.23-9.52,15.48-13.44-1.61,0-3.61.13-7.57.39-.42,0-.51,0-.51-1.83,0-2,.13-2,.34-2H56c3.62.3,5.62.34,7.23.34H64.8c0-1.23,0-2.81,0-4.55-1.57,0-3.44.08-7,.38-.46,0-.55,0-.55-1.87S57.28,8,57.62,8h.12a67.7,67.7,0,0,0,7,.42,54,54,0,0,0-.51-6.89V1.4c0-.21.13-.29.34-.29s4.89.38,4.89,1.23c0,.38-.47.93-.77,1.78a27.9,27.9,0,0,0-.42,4.34A57.1,57.1,0,0,0,75.52,8a.53.53,0,0,1,.47.42c0,.34,0,1.11,0,1.87a12.6,12.6,0,0,1,0,1.36c0,.22-.34.3-.47.3a71.82,71.82,0,0,0-7.4-.38c0,1.44-.08,3-.08,4.55,4.21,0,6.76-.13,10.12-.43a.45.45,0,0,1,.42.43c0,.34,0,1.11,0,1.83,0,1.57-.08,1.66-.46,1.66-4.26-.3-6.89-.39-9.15-.39,2.13,3.45,6.34,8.55,12,11.36.25.13.38.21.38.3s-.25.21-.59.38c-1.36.55-3.07,1-4,1.78a.6.6,0,0,1-.42.17c-.6,0-5.23-4-8.34-10.24.09,4.72.21,10.88.47,14,0,.21-.17.29-.38.33-.47.05-1.15.09-1.79.09-1.7,0-2.21,0-2.21-.42ZM48.09,22c.47,0,1.11,0,1.53,0s1.11,0,1.58,0c0-3,0-6.21,0-7.44,0-2.34,0-6,0-6s-.64,0-1.58,0-1.49,0-1.49,0,0,3.11,0,6.17Z" style="fill:#231815"/><path d="M86.91,4.21c0-.17,0-.21.3-.21.89,0,5.53.8,5.53,1.7,0,.55-.85,1.27-1,2.42-.51,6.38-.85,15.4-.85,16.59,0,3.95.17,7.4,4.85,7.4,3.74,0,8.93-2.55,12.63-6.08a1.32,1.32,0,0,1,.42-.34c.13,0,.13.21.17.51a13,13,0,0,0,.39,3,2.27,2.27,0,0,1,.12.68c0,.47-.25.77-.72,1.15a20.66,20.66,0,0,1-13,5.36c-4.77,0-8.64-2.47-9-8.42,0-1.11-.08-2.13-.08-3.15,0-3.14.21-6,.3-9.44,0-1.61.12-3.91.12-6.25a40.8,40.8,0,0,0-.21-4.68Z" style="fill:#231815"/><path d="M113.74,16.42c0-5.11.17-5.41.64-5.41.3,0,4.68.26,4.68,1.11,0,.51-.77,1.23-.9,2.59-.08,1.19-.17,2.43-.17,3.62,0,9.48,4.34,11,4.85,11,.81,0,1.7-.89,3.11-4.8.08-.22.12-.35.17-.35s.17.17.29.39a10.76,10.76,0,0,0,2,2.68,1,1,0,0,1,.38.72c0,1.53-2.29,6.08-5.65,6.08C122.93,34,113.74,33.89,113.74,16.42Zm24.37-3.54a.74.74,0,0,1,.42-.17c1.07,0,8.13,9.87,8.13,11.7,0,.55-3.58,2.25-4.13,2.25-.17,0-.34-.12-.42-.42-1.15-4.81-5.36-10.17-6.47-11.4a.62.62,0,0,1-.13-.3c0-.17.13-.25.26-.38Z" style="fill:#231815"/><path d="M176.46,36.23c0,.51-.25.6-.51.6-.59,0-1.49,0-2.3,0-1.82,0-2-.13-2-.64l.08-2c-1.32,0-4-.08-6.8-.08-2.64,0-5.45,0-7.11.08,0,.68,0,1.41,0,2.13s-.47.76-2.47.76S153,37,153,36.44v-.08c.59-6,.68-11.1.68-14.25,0-7.65,0-11-.43-17.48V4.55c0-.21,0-.26.43-.26,3.7.26,7.19.3,11.18.3,5.4,0,8-.17,10.89-.34h.13c.25,0,.34.13.34.51-.3,8-.34,11.91-.34,14.93,0,2.76,0,8.33.55,16.41ZM171.87,8.17s-3.19-.09-7-.09-7.14.09-7.14.09-.09,3.57-.09,8.84c1.62,0,4.51.08,7.23.08,3,0,5.83-.08,7.06-.12C172,11.69,171.87,8.17,171.87,8.17ZM164.94,20.5c-2.73,0-5.66,0-7.28.08,0,7.91.05,9.44.05,10,1.61,0,4.5.09,7.18.09,2.94,0,5.7,0,7-.09.08-2.63.08-3.06.08-9.91C170.72,20.58,168,20.5,164.94,20.5Z" style="fill:#231815"/><path d="M199.72.64c0-.26.12-.39.38-.39a25.55,25.55,0,0,1,4.93,1c.43.12.56.34.56.59,0,.55-.81,1.36-1.07,2.17A24.08,24.08,0,0,0,203.93,9c3.65,0,7.61-.08,14.67-.47.51,0,.55.3.55,2.51,0,.6,0,1.15,0,1.49s-.26.3-.51.3c-6.08-.34-9.91-.38-13.31-.42,2.17,3.31,8.55,12.24,16.58,15.73.3.13.43.25.43.38s-.17.3-.51.43A13,13,0,0,0,218,31.09a.54.54,0,0,1-.38.17c-.77,0-9.23-6.85-13.7-15.48.05,2.55.13,6.16.26,9.82,1.49,0,3.23-.13,5.87-.38.38,0,.38.55.38,2.42,0,1.66-.08,1.7-.38,1.7-2.55-.21-4.3-.34-5.79-.38.09,3.27.22,6.25.3,8.21,0,.21-.12.34-.38.38a10.85,10.85,0,0,1-1.79.09c-.8,0-1.66,0-2.21,0-.34,0-.42-.17-.42-.42.12-2.38.25-5.28.34-8.21-1.45,0-3.32.17-5.79.38-.46,0-.51-.21-.51-2.38,0-1.7.05-1.74.51-1.74,2.6.21,4.43.34,5.87.38.13-3.78.21-7.4.26-10-4.89,8.63-13,16.07-13.78,16.07a.91.91,0,0,1-.51-.25,12,12,0,0,0-3.79-2.13c-.21-.08-.38-.17-.38-.3s.09-.16.3-.25c7.87-3.83,14.24-13.06,16.41-16.46-3.19,0-6.72.13-12.84.47-.55,0-.55-.3-.55-2.13,0-2.12.13-2.17.34-2.17h.21c7.27.39,11,.43,14.59.47a60.14,60.14,0,0,0-.68-8.16Z" style="fill:#231815"/><path d="M230,17.65a31,31,0,0,0-6.33-2c-.26,0-.43,0-.43-.3a15.84,15.84,0,0,1,1.11-3.14c0-.09.08-.22.42-.22a32.16,32.16,0,0,1,6.64,1.71.36.36,0,0,1,.21.34c0,.72-.81,3.65-1.28,3.65A.69.69,0,0,1,230,17.65Zm4.34,7.18a.59.59,0,0,1,0,.26,72.68,72.68,0,0,1-4.55,9.44c-.68,1.28-.6,2.08-1.32,2.08-1,0-4.47-1.65-4.47-2.08a.56.56,0,0,1,.17-.34c3.24-3,6.21-8.89,7.53-11.91.09-.12.13-.21.21-.21s.13,0,.22.17a14.56,14.56,0,0,0,2.08,2.3A.32.32,0,0,1,234.37,24.83ZM231.73,8.21a35.34,35.34,0,0,0-5.27-3.7c-.17-.09-.34-.17-.34-.34a9.92,9.92,0,0,1,2.17-2.89c.64,0,6,3.27,6,3.82,0,.34-1.62,3.32-2.17,3.32A.64.64,0,0,1,231.73,8.21ZM240.49,37c0,.42-.12.55-2,.55s-2-.21-2-.51c.51-6.5.6-11.22.6-14.16,0-8.21,0-9.61-.26-12.2a.35.35,0,0,1,.34-.39c1.75.13,4,.22,6.3.26,0-.68-.05-1.32-.05-1.92a18.33,18.33,0,0,0-.17-2.33c-2.08,0-4.59.17-7.44.38-.42,0-.51-.09-.51-1.92,0-2,.13-2.08.39-2.08h.12c5.83.43,9.74.47,11.95.47,2.6,0,6.34,0,12.42-.47.51,0,.55.85.55,2,0,1.92-.17,2-.51,2-2.89-.21-5.36-.3-7.4-.34a1.55,1.55,0,0,1-.38.47c-.38.34-.38,1.4-.42,2.25,0,.38,0,.89,0,1.49,2.21,0,4.47-.17,6.34-.34h0a.46.46,0,0,1,.43.47c-.13,3.14-.17,6.29-.17,8.84,0,5.44.29,12,.59,17.18,0,.3-.25.6-.47.6-.51,0-1.27,0-1.91,0-1.66,0-1.74-.13-1.74-.55s0-1.11,0-1.7c-1.45-.05-4.89-.13-7.36-.13-2.25,0-5.53,0-7.23.08Zm14.67-14.63a11.8,11.8,0,0,1-1.82.09c-2.94,0-4.81-.68-4.81-3.45v-.34c.09-1.4.17-3.36.21-5.23h-2.29c-.47,7.19-3.07,10-3.45,10a.3.3,0,0,1-.17-.05,7.37,7.37,0,0,0-2.42-1v2.85c1.7,0,5,.08,7.27.08,2.55,0,6.08,0,7.48-.08Zm-11.78-8.93c-1.61,0-2.89.09-2.89.09s0,4.76-.08,7.78C242.53,19.26,243.17,16.24,243.38,13.48Zm11.78,15.14c-1.4,0-4.93-.08-7.44-.08-2.29,0-5.57,0-7.27.08v3.1c1.7.05,5,.09,7.23.09,2.51,0,6.08-.09,7.48-.13Zm-6.37-20c0-.72,0-1.65-.13-2.38H247.3c0,.17-.17.39-.43.68a6,6,0,0,0-.3,2.34c0,.39,0,.85,0,1.32h2.26Zm3.1,9.53c0,1,1.06,1,1.91,1a6,6,0,0,0,1.32-.08c0-2.72-.13-5.57-.13-5.57s-1.36-.05-3.1-.09Z" style="fill:#231815"/><path d="M271.73,28.36a.58.58,0,0,1-.11.3c-1.43,3.16-1.84,5-1.84,6.15a3.1,3.1,0,0,0,.33,1.51.26.26,0,0,1,0,.15c0,.66-2.84,1.07-2.84,1.07-.22,0-2.54-2-2.54-9.18a53.94,53.94,0,0,1,1.4-11.17,38.05,38.05,0,0,0,.77-4.05c0-.29.08-.37.26-.37s4.35,1,4.35,1.62c0,.41-.89.78-1.14,1.52a32.86,32.86,0,0,0-2.33,11.2c0,.14,0,2.69.34,2.69.11,0,.25-.19.4-.52s.78-1.84,1.14-2.5c0-.11.08-.15.15-.15s.08,0,.19.11a4.17,4.17,0,0,0,1.29,1.44A.17.17,0,0,1,271.73,28.36ZM291,31.71a23.11,23.11,0,0,1-.3,3.28c0,.19-.14.3-.4.34a54.87,54.87,0,0,1-5.75.36c-4.64,0-8.29-.95-11-3.53a.53.53,0,0,1-.22-.48,8.45,8.45,0,0,1,1.55-2.8.74.74,0,0,1,.44.25c1.69,1.92,4.05,2.8,7.85,2.8a46.1,46.1,0,0,0,7.33-.73,1.27,1.27,0,0,0,.18,0c.26,0,.3.15.3.41Zm-2.8-11.46c-1.59-.11-2.95-.18-4.13-.18-4.35,0-6.56.63-9.14.63-.29,0-.48-.08-.48-.3V20c0-2.47.22-2.69.59-2.69h.33c2.36,0,5.2-.7,11.47-.7h1.25c.48,0,.59.07.59,2.32,0,1.18-.08,1.32-.37,1.32Z" style="fill:#231815"/><path d="M301.58,39.67a37.92,37.92,0,0,0-6.59-5.6c-.15-.07-.22-.15-.22-.22,0-.52,2.17-2.47,2.32-2.47.48,0,7.33,4.61,7.33,5.31a9.39,9.39,0,0,1-2.62,3.09A.31.31,0,0,1,301.58,39.67Z" style="fill:#231815"/><path d="M18,58.41c11.61,0,16.58-.3,17.14-.34s.46.13.46,2.34a12.73,12.73,0,0,1,0,1.4.46.46,0,0,1-.42.3c-5.66-.34-14.93-.34-17.14-.34-1.7,0-3.62.08-5.4.08-3.28,5.57-6,7.83-6.25,7.83a.47.47,0,0,1-.3-.13A10.33,10.33,0,0,0,2.64,68c-.26-.09-.39-.17-.39-.3a.34.34,0,0,1,.17-.21C8,63.89,11.69,55.94,12,53.69a.33.33,0,0,1,.34-.26s4.55,1.49,4.55,2.21q0,.39-.9.9a3.35,3.35,0,0,0-1.27,1.4l-.26.47ZM10,88.3c-3.11,0-3.45-.21-3.45-.46,0,0,0-.09,0-.13A82.73,82.73,0,0,0,9.27,77C7.06,77,4.89,77,3,77.16c-.64,0-.64,0-.64-1.87,0-2,0-2,.64-2,2,.13,4.46.21,6.85.25.46-2.76,1-6.54,1.1-8.54a.33.33,0,0,1,.34-.3c1.19.09,4.55.38,13,.38,2.21,0,4.42-.08,6.93-.29h.17c.25,0,.34.08.34.25v.13c-.13,1.1-.3,4.46-.6,8.37,2.26,0,4.51-.12,6.47-.25.38,0,.55.17.55,2s-.13,2-.55,2c-2-.12-4.34-.21-6.72-.25-.17,2-.39,3.87-.6,5.61,2.13,0,4.34-.17,6.47-.34.34,0,.51.09.51,2a16.32,16.32,0,0,1-.09,1.7.46.46,0,0,1-.42.3c-2.17-.18-4.64-.3-7-.35-.85,4.43-3.06,6.38-7.61,6.43-.34,0-.64,0-.77-.47-.29-1.15-1.83-2.68-2.46-3.57a.64.64,0,0,1-.13-.26s0,0,.08,0,.17,0,.3,0a21.21,21.21,0,0,0,3.36.43c1.92,0,2.6-.73,3.23-2.6-2.46,0-4.5,0-5.48,0-1.66,0-6,.09-8.93.13L11.06,88c-.05.21-.17.29-.43.29Zm7.1-5.69c.3-1.62.55-3.66.85-5.79-1.4,0-3.11,0-5,0l-1,5.75ZM14.59,68.06c-.26,1.15-.64,3.15-1,5.53,1.82,0,3.53,0,4.84,0,.26-2.25.47-4.29.56-5.57Zm11.82,14.5c.25-1.7.47-3.7.64-5.7-2,0-3.92,0-5.36,0-.26,2.09-.51,4.17-.77,5.74ZM23.47,68.1a1.43,1.43,0,0,1-.46.26.58.58,0,0,0-.39.51c-.08,1.11-.34,2.81-.55,4.76,1.49,0,3.28,0,5.19,0,.17-2.59.25-4.76.25-5.44C27.05,68.1,25.3,68.1,23.47,68.1Z" style="fill:#231815"/><path d="M62.93,87a30.43,30.43,0,0,0,3.15.25c1.36,0,2.34-.25,2.42-1.32s.13-1.87.13-8.67c-1.4,0-3.83-.09-6.38-.09-2.72,0-5.27,0-6.63.09-1.92,10.33-8.29,14.46-8.55,14.46a.67.67,0,0,1-.47-.26,10.82,10.82,0,0,0-3.78-1.57c-.22,0-.3-.17-.3-.3a.4.4,0,0,1,.25-.34c8.47-4.25,9.57-13.31,9.57-22.45,0-.9,0-1.83,0-2.73,0-2.76-.42-5.4-.64-7.82V56c0-.29.05-.34.26-.34h.25c3.75.22,6.21.39,9.06.39,7.66,0,10.46-.22,11.23-.26h.17c.25,0,.3.09.3.34v.26c-.3,3.36-.34,7.1-.34,19.6,0,3.66.29,8.29.29,10.72s-1.48,4.93-6.59,4.93c-.25,0-.42-.21-.59-.59-.47-1.15-2.09-2.56-3-3.7a1.13,1.13,0,0,1-.17-.26c0-.08.08-.08.21-.08Zm-.68-18.72c-2.25,0-4.42,0-5.87.09,0,1.79-.12,3.57-.29,5.36,1.44,0,3.7.08,6.12.08s5,0,6.42-.08c0-2,0-3.74,0-5.36C67.18,68.32,64.8,68.27,62.25,68.27Zm6.13-8.71c-1.88-.05-4-.13-6.21-.13s-4.09,0-5.87,0c0,1.57.08,3.19.08,4.85l0,.51c1.44,0,3.53.09,5.78.09,2.51,0,4.85,0,6.29-.09,0-2.34,0-4.12-.08-5.27Z" style="fill:#231815"/><path d="M113.15,83a39.35,39.35,0,0,0-.43-7.28V75.5c0-.17,0-.17.17-.17,1.54,0,5.36.77,5.36,1.49,0,.39-.51.94-.81,1.75-.38,1-.46,1.19-.46,4.38a79.46,79.46,0,0,0,.46,8.08c0,.25-.17.42-2.21.42s-2.25,0-2.25-.51c0-.76.08-1.36.08-2-4.42-.17-6.29-.17-8.33-.17s-10.21,0-14.33.17c0,.6,0,1.28.08,2,0,.34-.38.42-2.25.42-2.13,0-2.21-.08-2.21-.51.21-3.32.51-5.61.51-8.25a39.39,39.39,0,0,0-.43-7.19v-.17c0-.17.05-.17.13-.17.38,0,5.4.6,5.4,1.49,0,.39-.51.94-.81,1.75-.38,1-.46.85-.46,4.29v2.72c5.14.17,7.06.17,9.14.17,0-3,.13-9.23.13-13.61-1.41,0-2.9,0-7.19.17,0,.39,0,.77,0,1.19,0,.22-.17.3-.38.34-.47,0-1.15,0-1.79,0-1.91,0-2.21,0-2.21-.47.26-3.36.51-5.49.51-8.08a39.24,39.24,0,0,0-.42-6.85v-.17c0-.12,0-.17.17-.17.34,0,5.23.6,5.23,1.45,0,.38-.47.93-.77,1.74-.34,1-.47.64-.47,4,0,1.15.05,2.25.05,3.44,4.46.18,5.74.18,7.18.18A118.34,118.34,0,0,0,99,55.47a.61.61,0,0,1,0-.25c0-.17.09-.21.34-.21,1,0,5.53.68,5.53,1.48,0,.34-.38.81-.64,1.37-.42.85-.63,2.5-.68,10.93,2.81,0,3.58,0,7.06-.13,0-.85,0-1.79,0-3a38.75,38.75,0,0,0-.43-7v-.17c0-.17,0-.17.21-.17,1.41,0,5.19.77,5.19,1.45,0,.38-.47.94-.76,1.74-.34,1-.47,1.07-.47,4.17,0,3.57.3,4.93.47,7.4,0,.21-.17.3-.39.34-.46,0-1.15,0-1.78,0-1.92,0-2.21,0-2.21-.46l0-.86c-5-.17-4.81-.17-7-.17,0,4.51.09,10.64.13,13.61,2.13,0,4.3,0,9.57-.17Z" style="fill:#231815"/><path d="M150.35,68.1c.17,0,.39,0,.39,2.09a13.6,13.6,0,0,1-.09,1.61c0,.17-.13.22-.38.22-2.85-.09-4.13-.3-6.72-.3-3.06,0-3.57.17-6.76.3-.6,0-.6-.09-.6-1.58,0-.59,0-1.23,0-1.61-3.18,3.19-7.35,6.59-8,6.59a.47.47,0,0,1-.39-.17c-.8-1-3.19-2-4.08-2.34-.21-.13-.34-.21-.34-.3s.13-.17.3-.25c10.12-4.43,17.9-15,18.5-18.16,0-.21.08-.38.25-.38s4.64,1.53,4.64,2.42c0,.43-.64.76-1.15.93,2.89,4.21,9.61,10.55,17.22,13.23.22.09.43.13.43.21s-.13.22-.47.43a15.16,15.16,0,0,0-3.74,2.72.67.67,0,0,1-.51.26c-.77,0-9.78-6.26-15.27-14A68.47,68.47,0,0,1,137,68.1a64.83,64.83,0,0,0,6.59.3c2.17,0,4-.13,6.68-.3ZM129.69,86.65c1.65,0,3.87-.17,6.37-.43a48.23,48.23,0,0,0,2-7.36c-1.95,0-4,.17-7.52.3-.56,0-.6-.21-.6-2,0-1.92.09-2,.43-2h.17c6.38.34,8.2.39,13,.39s7.19,0,13.78-.39c.38,0,.51.13.51,2.09a12.7,12.7,0,0,1-.09,1.66c0,.17-.12.25-.38.25-6.29-.21-9-.38-13.61-.38,0,.17-.34.38-.72.55s-.55.21-.72.72a48.13,48.13,0,0,1-2,5.7c3.36-.42,6.72-.93,9.19-1.32-1.06-1.1-1.87-1.87-2.17-2.16a.62.62,0,0,1-.17-.3,7.19,7.19,0,0,1,2.81-2c.13,0,.21.08.34.17,6.38,5.36,8.25,8.54,8.25,8.63,0,.51-2.85,2.81-3.32,2.81-.17,0-.3-.13-.47-.43a35.08,35.08,0,0,0-2.68-3.74c-3.18.55-18.37,3.32-19.77,3.53-.64.13-1,.59-1.36.59-.68,0-2.6-4.08-2.6-4.67,0-.17.13-.17.51-.17Z" style="fill:#231815"/><path d="M179.6,74.27a21.09,21.09,0,0,1,8.13-1.79c4.72,0,10.29,2,10.29,7.11,0,4.29-5.15,9.22-10.38,9.22-5,0-6.25-3.74-6.25-4.76,0-.3.13-.42.43-.64a21.74,21.74,0,0,0,2.29-1.78c.13-.09.17-.17.26-.17s.13.12.21.55a3.07,3.07,0,0,0,3.11,2.81c2.38,0,5.78-2.55,5.78-5.23s-3.57-3.41-6-3.41A18.59,18.59,0,0,0,179.69,78c.21,5.78.21,6.25.21,6.34,0,3.57-1.91,4.8-4.21,4.8s-7.61-2-7.61-5.27c0-.47,0-3.83,8-8.21,0-.93,0-1.87,0-2.81s0-1.91,0-2.8a24.76,24.76,0,0,1-4.89.59c-1.19,0-1.62-.12-1.83-.46a14.49,14.49,0,0,1-.89-3.41c0-.21,0-.29.29-.29H169a13.75,13.75,0,0,0,2.72.25,22.91,22.91,0,0,0,4.29-.47c0-.42-.21-5.06-.47-6.55a1.51,1.51,0,0,1,0-.38c0-.25.09-.25.43-.25h.25c1.11,0,4.51.25,4.51,1.1,0,.47-.64,1.11-.76,2.09s-.22,2-.26,3a20.58,20.58,0,0,0,3.61-1.87.7.7,0,0,1,.26-.08c.64,0,1.4,3.1,1.4,3.19a.69.69,0,0,1-.34.68,26.65,26.65,0,0,1-5,2Zm-6.67,8a2.21,2.21,0,0,0-.68,1.44c0,1.28,1.91,1.83,2.68,1.83,1.1,0,1.23-.55,1.23-3.44,0-.81,0-1.66,0-2.51A19.7,19.7,0,0,0,172.93,82.27ZM198.57,70.1A16.46,16.46,0,0,0,189.26,67a.32.32,0,0,1-.34-.34,22.21,22.21,0,0,1,1-3,.37.37,0,0,1,.42-.3c6.34.34,10.21,2.81,10.21,3.11s-1.28,3.7-1.79,3.7A.27.27,0,0,1,198.57,70.1Z" style="fill:#231815"/><path d="M212.69,91.41A18,18,0,0,0,210.05,89c-.13-.13-.21-.22-.21-.3s.12-.21.25-.26c6.72-1.61,12.5-5.69,12.5-12.2a13.53,13.53,0,0,0-.63-3.91A3.75,3.75,0,0,0,218,69.72c-2.25,0-4.33,1.06-8.33,3.15a.61.61,0,0,1-.34.08c-.77,0-3.32-3.57-3.32-3.78a.33.33,0,0,1,.3-.34,13.22,13.22,0,0,0,3.27-.77c4-1.53,6.3-2.21,8.76-2.21,3.62,0,6.51,1.57,7.62,5.1a18.13,18.13,0,0,1,.89,5.57c0,12.08-13.31,15.19-13.61,15.19A.67.67,0,0,1,212.69,91.41Zm9.44-28.28c-1.71-1-5.36-2.17-10.3-2.94-.21,0-.38-.12-.38-.29,0-.39,1.28-3.41,1.75-3.41.72,0,11.22,1.71,11.22,2.68,0,.51-1.57,4-2.08,4A.42.42,0,0,1,222.13,63.13Z" style="fill:#231815"/><path d="M231.39,88.56a5.48,5.48,0,1,1,5.49,5.49A5.47,5.47,0,0,1,231.39,88.56Zm8.59,0a3.06,3.06,0,0,0-3.1-3.1,3.1,3.1,0,0,0-3.13,3.1,3.13,3.13,0,0,0,3.13,3.13A3.1,3.1,0,0,0,240,88.56Z" style="fill:#231815"/></g></g></svg>