<?xml version="1.0" encoding="utf-8"?>
<!-- Generator: Adobe Illustrator 22.0.1, SVG Export Plug-In . SVG Version: 6.00 Build 0)  -->
<svg version="1.1" id="レイヤー_1" xmlns="http://www.w3.org/2000/svg" xmlns:xlink="http://www.w3.org/1999/xlink" x="0px"
	 y="0px" viewBox="0 0 83.1 17.7" style="enable-background:new 0 0 83.1 17.7;" xml:space="preserve">
<title>logo</title>
<g id="レイヤー_2_1_">
	<g id="レイヤー_1-2">
		<g id="レイヤー_2-2">
			<g id="レイヤー_1-2-2">
				<path d="M0.1,9.2c0-2,1.6-3.5,4.6-3.5c1.2,0,2.4,0.3,3.5,0.8c0.6,0.3,0.9,0.7,0.9,1.2S8.6,9.3,7.7,9.3C7.4,9.3,7,9.2,6.7,9
					C6,8.7,5.2,8.5,4.5,8.4c-0.7,0-1.1,0.2-1.1,0.7c0,1.6,5.9,0.9,5.9,4.9c0,2.2-1.7,3.5-4.7,3.5c-1.3,0-2.6-0.3-3.7-0.9
					C0.4,16.5,0,15.9,0,15.4c0-0.6,0.5-1.6,1.4-1.6c0.4,0,0.7,0.2,1,0.4c0.7,0.4,1.5,0.7,2.3,0.7c0.8,0,1.3-0.2,1.3-0.8
					C6,12.4,0.1,13.1,0.1,9.2z M15.3,8.5c-0.7,0-1.5,0.2-2.1,0.5c-0.3,0.2-0.7,0.3-1.1,0.4c-0.8,0-1.3-0.9-1.3-1.6
					c0-0.5,0.3-0.8,0.9-1.2c1.2-0.6,2.5-0.9,3.9-0.9c1.5-0.2,2.9,0.3,4,1.3c0.6,0.8,0.9,1.8,0.8,2.9v6.2c0,1-0.5,1.4-1.7,1.4
					c-1,0-1.4-0.3-1.4-1v-0.2c-0.8,0.9-2,1.3-3.2,1.2c-2.4,0-3.8-1.3-3.8-3.3c0-2.3,1.8-3.6,6.7-4V10C17.1,9.1,16.7,8.5,15.3,8.5z
					 M13.8,13.9c0,0.6,0.4,1,1.4,1c0.7,0,1.4-0.3,1.9-0.7v-2C14.9,12.5,13.8,13,13.8,13.9L13.8,13.9z M33,16.7
					c0,0.6-0.5,0.9-1.7,0.9c-0.9,0.2-1.8-0.2-2.4-1L25.4,12v4.2c0,0.9-0.6,1.4-1.7,1.4S22,17.1,22,16.2V1.5c0-0.9,0.6-1.4,1.7-1.4
					s1.7,0.5,1.7,1.4v9.4l3.4-4c0.5-0.8,1.4-1.2,2.3-1.2c1.2,0,1.8,0.4,1.8,0.9c-0.1,0.5-0.3,0.9-0.7,1.2l-3.4,3.6l3.5,4
					C32.7,15.7,32.9,16.2,33,16.7z M43.5,15.5c0,0.6-0.4,0.9-0.9,1.2c-1.1,0.6-2.4,0.9-3.7,0.9c-3.8,0-6-2.2-6-5.9s2.1-6.1,5.5-6.1
					c2.7-0.2,5.1,1.9,5.2,4.6c0,0,0,0,0,0l0,0c0,0.1,0,0.3,0,0.4c0,1.8-0.9,2-1.9,2h-5.5c0.1,1.4,1.3,2.3,2.7,2.2
					c0.7,0,1.4-0.2,2.1-0.5c0.3-0.2,0.6-0.3,1-0.3C42.9,14,43.5,14.7,43.5,15.5z M36.3,10.4h4.3c0.1-1.1-0.7-2.1-1.8-2.2h-0.3
					C37.2,8.2,36.5,9,36.3,10.4z M52.4,16.3c0,0.3-0.2,0.6-0.5,0.8c-0.7,0.4-1.5,0.6-2.3,0.5c-1.2,0.1-2.4-0.5-3-1.5
					c-0.4-0.9-0.6-2-0.5-3v-5h-1.4c-0.4,0.1-0.8-0.2-0.9-0.7c0-0.1,0-0.1,0-0.2c-0.1-0.4,0.2-0.8,0.7-0.9c0.1,0,0.2,0,0.2,0h1.4V3.5
					c0-0.6,0.3-0.9,1-0.9s1.1,0.3,1.1,0.9v2.8h2.9c0.4-0.1,0.8,0.2,0.9,0.7c0,0.1,0,0.1,0,0.2c0.1,0.4-0.2,0.8-0.7,0.9
					c-0.1,0-0.2,0-0.2,0h-2.9v5c-0.1,0.7,0,1.4,0.3,2c0.3,0.5,0.8,0.7,1.3,0.7c0.3,0,0.7-0.1,1-0.2c0.2-0.1,0.4-0.2,0.6-0.2
					C52.1,15.4,52.4,15.8,52.4,16.3z M57.4,7.8c-0.8,0-1.6,0.2-2.3,0.6c-0.4,0.2-0.6,0.4-0.9,0.4c-0.5-0.1-0.9-0.5-0.9-1
					c0-0.3,0.2-0.6,0.8-0.9C55.2,6.3,56.4,6,57.7,6c1.3-0.1,2.6,0.4,3.5,1.4c0.5,0.8,0.8,1.8,0.7,2.8v6.5c0,0.6-0.2,0.9-1,0.9
					s-0.9-0.2-0.9-0.7v-0.6c-0.9,0.9-2.1,1.4-3.4,1.4c-2.3,0-3.6-1.3-3.6-3.2c0-2.3,2-3.6,6.9-3.9v-0.3C59.8,8.6,59.1,7.8,57.4,7.8
					L57.4,7.8z M55.1,14.3c0,0.9,0.6,1.6,2,1.6c1,0,1.9-0.4,2.6-1v-2.9C56.6,12.3,55.1,12.9,55.1,14.3L55.1,14.3z M72.8,17
					c0,0.4-0.2,0.6-1.2,0.6c-0.6,0.1-1.2-0.2-1.5-0.7l-4.6-5v4.9c0,0.6-0.3,0.9-1,0.9s-1.1-0.3-1.1-0.9V0.9c0-0.6,0.3-0.9,1-0.9
					s1.1,0.3,1.1,0.9v10.3l4.4-4.4c0.4-0.5,1-0.8,1.6-0.8c0.8,0,1.1,0.2,1.1,0.5s-0.2,0.5-0.8,1l-4.1,3.8l4.5,4.6
					C72.7,16.5,72.8,16.8,72.8,17z M81.1,16.7v-0.8c-0.8,1.2-2.1,1.9-3.6,1.8c-1.2,0.1-2.4-0.5-3.2-1.5c-0.5-0.9-0.8-2-0.7-3V6.9
					c0-0.6,0.3-0.9,1-0.9s1.1,0.3,1.1,0.9v5.9c-0.1,0.7,0.1,1.4,0.5,2.1c0.5,0.6,1.2,1,2,0.9c1.1,0,2.2-0.5,2.8-1.5V6.9
					C81,6.3,81.3,6,82,6s1.1,0.3,1.1,0.9v9.8c0,0.6-0.4,0.9-1,0.9S81.1,17.2,81.1,16.7z"/>
			</g>
		</g>
	</g>
</g>
</svg>
